<svg viewBox="0 0 800 800" xmlns="http://www.w3.org/2000/svg"><path d="M543.4950723857208,348.54095380401037 L543.461704486341,283.0017483810662 M530.3447036842806,356.1166561691686 L530.2823560565782,290.5606286842685 M543.4950723857208,348.54095380401037 L543.163968065322,350.2260378151492 M543.163968065322,350.2260378151492 L542.1905631834136,351.82697867502156 M542.1905631834136,351.82697867502156 L540.6234911592843,353.26341909151625 M540.6234911592843,353.26341909151625 L538.5412394362254,354.4632164794689 M538.5412394362254,354.4632164794689 L536.0482210050191,355.3660807659069 M536.0482210050191,355.3660807659069 L533.2695390899171,355.9266225785661 M533.2695390899171,355.9266225785661 L530.3447036842806,356.1166561691686 M543.461704486341,283.0017483810662 L543.1298674294992,284.6830891472824 M543.1298674294992,284.6830891472824 L542.1543156351817,286.28047445585634 M542.1543156351817,286.28047445585634 L540.5837894074468,287.7137253076127 M540.5837894074468,287.7137253076127 L538.4969489840469,288.91085905603757 M538.4969489840469,288.91085905603757 L535.9984374531776,289.8117191973171 M535.9984374531776,289.8117191973171 L533.2136339023562,290.3710168610616 M533.2136339023562,290.3710168610616 L530.2823560565782,290.5606286842685 M521.0570726594551,353.8969832487735 L520.9742821406785,288.34588285221264 M530.3447036842806,356.1166561691686 L527.7810029704385,355.9710170510829 M527.7810029704385,355.9710170510829 L525.3165272108749,355.53971726876284 M525.3165272108749,355.53971726876284 L523.0461065764969,354.83937800568754 M523.0461065764969,354.83937800568754 L521.0570726594551,353.8969832487735 M530.2823560565782,290.5606286842685 L527.7130096583365,290.41531280193095 M527.7130096583365,290.41531280193095 L525.2431082709953,289.984970295853 M525.2431082709953,289.984970295853 L522.9676911101014,289.2861855633399 M522.9676911101014,289.2861855633399 L520.9742821406785,288.34588285221264 M517.2232022848069,348.54095380401037 L517.1320021922438,283.0017483810662 M521.0570726594551,353.8969832487735 L519.4258930169979,352.74883352246786 M519.4258930169979,352.74883352246786 L518.2152248326397,351.4391364499375 M518.2152248326397,351.4391364499375 L517.471508744419,350.0182931250848 M517.471508744419,350.0182931250848 L517.2232022848069,348.54095380401037 M520.9742821406785,288.34588285221264 L519.339517180027,287.2002822873165 M519.339517180027,287.2002822873165 L518.1261910662008,285.89349352525164 M518.1261910662008,285.89349352525164 L517.3808462100984,284.4758058957944 M517.3808462100984,284.4758058957944 L517.1320021922438,283.0017483810662 M473.9136047576755,323.53614601322664 L473.7273821444124,258.0525849644561 M517.2232022848069,348.54095380401037 L473.9136047576755,323.53614601322664 M517.1320021922438,283.0017483810662 L473.7273821444124,258.0525849644561 M82.11907877802639,548.2556721440362 L81.0559466179626,482.27867006548735 M473.9136047576755,323.53614601322664 L82.11907877802639,548.2556721440362 M473.7273821444124,258.0525849644561 L81.0559466179626,482.27867006548735 M78.91539876407785,649.43750957829 L77.83790776035312,583.2432089596059 M82.11907877802639,548.2556721440362 L72.83649887807053,554.2005663217949 M72.83649887807053,554.2005663217949 L64.72536735830096,560.7082790687567 M64.72536735830096,560.7082790687567 L57.888384117368446,567.6983443835401 M57.888384117368446,567.6983443835401 L52.41283025511831,575.0840313150452 M52.41283025511831,575.0840313150452 L48.36919564749303,582.7735003533402 M48.36919564749303,582.7735003533402 L45.810381286312804,590.6708046571343 M45.810381286312804,590.6708046571343 L44.7708447685045,598.6770985606252 M44.7708447685045,598.6770985606252 L45.26600383582911,606.6919237409899 M45.26600383582911,606.6919237409899 L47.2921345155799,614.6142868924587 M47.2921345155799,614.6142868924587 L50.826016354256694,622.3441389723138 M50.826016354256694,622.3441389723138 L55.825314345796926,629.783516291654 M55.825314345796926,629.783516291654 L62.228952136754856,636.837846651911 M62.228952136754856,636.837846651911 L69.95775534515803,643.4172094446066 M69.95775534515803,643.4172094446066 L78.91539876407785,649.43750957829 M81.0559466179626,482.27867006548735 L71.75222851676381,488.21071321762645 M71.75222851676381,488.21071321762645 L63.62251663005327,494.7043702856206 M63.62251663005327,494.7043702856206 L56.76974762360288,501.6793520683061 M56.76974762360288,501.6793520683061 L51.28140668996514,509.04911747928315 M51.28140668996514,509.04911747928315 L47.22815180632654,516.7220272722245 M47.22815180632654,516.7220272722245 L44.66301398903619,524.602342965557 M44.66301398903619,524.602342965557 L43.62054050298542,532.5914326351065 M43.62054050298542,532.5914326351065 L44.116196653513725,540.5890542426249 M44.116196653513725,540.5890542426249 L46.146263279846494,548.4944309641448 M46.146263279846494,548.4944309641448 L49.6874807393076,556.2077272756928 M49.6874807393076,556.2077272756928 L54.697431274186556,563.6311876569764 M54.697431274186556,563.6311876569764 L61.114912653963756,570.6704400310383 M61.114912653963756,570.6704400310383 L68.86058258620716,577.2357533057724 M68.86058258620716,577.2357533057724 L77.83790776035312,583.2432089596059 M252.12045451286434,649.4375161199229 L251.43198189757368,583.2432154872878 M78.91539876407785,649.43750957829 L88.98947684446091,654.8216633583671 M88.98947684446091,654.8216633583671 L100.05316636521457,659.5004843578214 M100.05316636521457,659.5004843578214 L111.96656247018547,663.4137797100634 M111.96656247018547,663.4137797100634 L124.57858031067423,666.5111205313494 M124.57858031067423,666.5111205313494 L137.72888853792523,668.752549966316 M137.72888853792523,668.752549966316 L151.25004759136178,670.1091174842293 M151.25004759136178,670.1091174842293 L164.96978388663896,670.5632514584839 M164.96978388663896,670.5632514584839 L178.71303110013972,670.109124043724 M178.71303110013972,670.109124043724 L192.3046068536187,668.7525712808618 M192.3046068536187,668.7525712808618 L205.57123455459111,666.5111336441174 M205.57123455459111,666.5111336441174 L218.34395783919877,663.4137829869169 M218.34395783919877,663.4137829869169 L230.4604430155444,659.5004671632184 M230.4604430155444,659.5004671632184 L241.7669303629957,654.8216551755137 M241.7669303629957,654.8216551755137 L252.12045451286434,649.4375161199229 M77.83790776035312,583.2432089596059 L87.93423651764374,588.6158845787595 M87.93423651764374,588.6158845787595 L99.02246513825662,593.2847380392844 M99.02246513825662,593.2847380392844 L110.96237682859163,597.1897016658256 M110.96237682859163,597.1897016658256 L123.60254768871204,600.2804512073071 M123.60254768871204,600.2804512073071 L136.78228468143692,602.5171125502746 M136.78228468143692,602.5171125502746 L150.33376893566083,603.8707950251284 M150.33376893566083,603.8707950251284 L164.08433531900835,604.3239633039449 M164.08433531900835,604.3239633039449 L177.8585186220481,603.8708015706742 M177.8585186220481,603.8708015706742 L191.4807366185503,602.5171338194862 M191.4807366185503,602.5171338194862 L204.77731680261317,600.2804642921767 M204.77731680261317,600.2804642921767 L217.5789166118147,597.1897049357042 M217.5789166118147,597.1897049357042 L229.7228313724744,593.2847208813002 M229.7228313724744,593.2847208813002 L241.0549502598154,588.6158764133442 M241.0549502598154,588.6158764133442 L251.43198189757368,583.2432154872878 M643.9542528679226,421.70915997285624 L644.1429526700931,356.008192295996 M252.12045451286434,649.4375161199229 L643.9542528679226,421.70915997285624 M251.43198189757368,583.2432154872878 L644.1429526700931,356.008192295996 M600.2171986390026,396.45755994022807 L600.3089888605728,330.81224022738337 M643.9542528679226,421.70915997285624 L600.2171986390026,396.45755994022807 M644.1429526700931,356.008192295996 L600.3089888605728,330.81224022738337 M590.893891017806,394.22582004734846 L590.9650808132392,328.5854275810078 M600.2171986390026,396.45755994022807 L597.6458533820155,396.3111304954115 M597.6458533820155,396.3111304954115 L595.1726531352349,395.8774855802238 M595.1726531352349,395.8774855802238 L592.8927669728564,395.17333846495154 M592.8927669728564,395.17333846495154 L590.893891017806,394.22582004734846 M600.3089888605728,330.81224022738337 L597.7319641566569,330.6661340250655 M597.7319641566569,330.6661340250655 L595.2532997573014,330.2334464167497 M595.2532997573014,330.2334464167497 L592.9683752737928,329.53085388273485 M592.9683752737928,329.53085388273485 L590.9650808132392,328.5854275810078 M587.0243674158414,388.8406752821627 L587.0869902813799,323.2121782320718 M590.893891017806,394.22582004734846 L589.2528716121865,393.0714284420527 M589.2528716121865,393.0714284420527 L588.0327443209364,391.7546118350066 M588.0327443209364,391.7546118350066 L587.2803131663333,390.32604549560045 M587.2803131663333,390.32604549560045 L587.0243674158414,388.8406752821627 M590.9650808132392,328.5854275810078 L589.3204326513767,327.43358522541683 M589.3204326513767,327.43358522541683 L588.0976056785897,326.1196770334479 M588.0976056785897,326.1196770334479 L587.3435072937227,324.69426650761733 M587.3435072937227,324.69426650761733 L587.0869902813799,323.2121782320718 M600.1747212801758,381.2315749184953 L600.2663237755577,315.6199004741737 M587.0243674158414,388.8406752821627 L587.3513424611272,387.1468187428322 M587.3513424611272,387.1468187428322 L588.322183219525,385.53825546360804 M588.322183219525,385.53825546360804 L589.8880369511296,384.09556712196326 M589.8880369511296,384.09556712196326 L591.9702865471731,382.8909790043326 M591.9702865471731,382.8909790043326 L594.4645190096468,381.98476623102886 M594.4645190096468,381.98476623102886 L597.2457607879892,381.4222568573933 M597.2457607879892,381.4222568573933 L600.1747212801758,381.2315749184953 M587.0869902813799,323.2121782320718 L587.4146798320229,321.52206507939053 M587.4146798320229,321.52206507939053 L588.3876561775742,319.91705747621955 M588.3876561775742,319.91705747621955 L589.9569587305144,318.477558800619 M589.9569587305144,318.477558800619 L592.0437970127842,317.2756344005346 M592.0437970127842,317.2756344005346 L594.5435279289114,316.3714258273576 M594.5435279289114,316.3714258273576 L597.3309026399522,315.81016063403325 M597.3309026399522,315.81016063403325 L600.2663237755577,315.6199004741737 M755.9468414977896,291.09820597458133 L756.3794594970145,225.687106180946 M600.1747212801758,381.2315749184953 L755.9468414977896,291.09820597458133 M600.2663237755577,315.6199004741737 L756.3794594970145,225.687106180946 M699.2696153583465,258.80190538478894 L699.5772789545508,193.46325964925995 M755.9468414977896,291.09820597458133 L699.2696153583465,258.80190538478894 M756.3794594970145,225.687106180946 L699.5772789545508,193.46325964925995 M586.6543527744734,194.63051558425596 L586.7153510692502,129.43674854151607 M699.2696153583465,258.80190538478894 L586.6543527744734,194.63051558425596 M699.5772789545508,193.46325964925995 L586.7153510692502,129.43674854151607 M530.5913723913918,226.64631856718856 L530.5301077549079,161.3801177189927 M586.6543527744734,194.63051558425596 L530.5913723913918,226.64631856718856 M586.7153510692502,129.43674854151607 L530.5301077549079,161.3801177189927 M630.0863004036953,283.58864954479964 L630.2428562771007,218.19436928613817 M530.5913723913918,226.64631856718856 L630.0863004036953,283.58864954479964 M530.5301077549079,161.3801177189927 L630.2428562771007,218.19436928613817 M639.3461839064225,285.78735699331196 L639.5230605433209,220.38815045091587 M630.0863004036953,283.58864954479964 L632.6385160135662,283.7328663094768 M632.6385160135662,283.7328663094768 L635.0941777842611,284.16000901231314 M635.0941777842611,284.16000901231314 L637.3590548050815,284.8536996900215 M637.3590548050815,284.8536996900215 L639.3461839064225,285.78735699331196 M630.2428562771007,218.19436928613817 L632.8006670308321,218.33826288410626 M632.8006670308321,218.33826288410626 L635.2617156513206,218.76444846454103 M635.2617156513206,218.76444846454103 L637.5315647886837,219.45658486597225 M637.5315647886837,219.45658486597225 L639.5230605433209,220.38815045091587 M643.207705586711,291.0982122104486 L643.393113290615,225.68711240285342 M639.3461839064225,285.78735699331196 L640.9792406426011,286.92517651997923 M640.9792406426011,286.92517651997923 L642.1954262630775,288.22352164563165 M642.1954262630775,288.22352164563165 L642.9479331201564,289.63256381420297 M642.9479331201564,289.63256381420297 L643.207705586711,291.0982122104486 M639.5230605433209,220.38815045091587 L641.1597108140425,221.52342121315812 M641.1597108140425,221.52342121315812 L642.37857860139,222.81885845796745 M642.37857860139,222.81885845796745 L643.1327528512325,224.2247453836646 M643.1327528512325,224.2247453836646 L643.393113290615,225.68711240285342 M630.1589062429492,298.6154022068161 L630.3157808625531,233.18748247317296 M643.207705586711,291.0982122104486 L642.889154007581,292.77028398392895 M642.889154007581,292.77028398392895 L641.9302236634722,294.3588613515041 M641.9302236634722,294.3588613515041 L640.3788236911307,295.7842074858071 M640.3788236911307,295.7842074858071 L638.3126583826818,296.9747358511834 M638.3126583826818,296.9747358511834 L635.8353276564951,297.8706258503779 M635.8353276564951,297.8706258503779 L633.0711504972865,298.4268369145813 M633.0711504972865,298.4268369145813 L630.1589062429492,298.6154022068161 M643.393113290615,225.68711240285342 L643.0738841265719,227.35544142280685 M643.0738841265719,227.35544142280685 L642.1128704888957,228.9404636962101 M642.1128704888957,228.9404636962101 L640.5580852159334,230.36262066859877 M640.5580852159334,230.36262066859877 L638.4874019450048,231.55048572916166 M638.4874019450048,231.55048572916166 L636.0046471269961,232.44437182899787 M636.0046471269961,232.44437182899787 L633.2344121481731,232.99933889675157 M633.2344121481731,232.99933889675157 L630.3157808625531,233.18748247317296 M630.1589062429492,298.6154022068161 L543.4950723857208,348.54095380401037 M630.3157808625531,233.18748247317296 L543.461704486341,283.0017483810662 M196.3051435336647,581.6625088354677 L195.49495832440223,515.6134271897392 M137.29829300487984,615.7301298722937 L136.35404000552006,549.6078829439925 M196.3051435336647,581.6625088354677 L201.3242978763946,585.3055922316528 M201.3242978763946,585.3055922316528 L205.02143926928454,589.4641144030834 M205.02143926928454,589.4641144030834 L207.25370077598282,593.9789532831255 M207.25370077598282,593.9789532831255 L207.93404279556776,598.6771050584999 M207.93404279556776,598.6771050584999 L207.03488424001446,603.3781934137701 M207.03488424001446,603.3781934137701 L204.58939867151994,607.9013670227866 M204.58939867151994,607.9013670227866 L200.69033475392723,612.0723490288035 M200.69033475392723,612.0723490288035 L195.48675612041217,615.7301298722937 M195.48675612041217,615.7301298722937 L189.17830545771295,618.7333400238507 M189.17830545771295,618.7333400238507 L182.0077893776956,620.9656871337519 M182.0077893776956,620.9656871337519 L174.2515699690908,622.3406859255834 M174.2515699690908,622.3406859255834 L166.208930508758,622.8050232349327 M166.208930508758,622.8050232349327 L158.19040704909636,622.3406745186359 M158.19040704909636,622.3406745186359 L150.505526982963,620.9656802093645 M150.505526982963,620.9656802093645 L143.4508434281812,618.7333388022607 M143.4508434281812,618.7333388022607 L137.29829300487984,615.7301298722937 M195.49495832440223,515.6134271897392 L200.5251417441508,519.2486701276454 M200.5251417441508,519.2486701276454 L204.23033320766012,523.3982473386022 M204.23033320766012,523.3982473386022 L206.46735277946,527.9033806149178 M206.46735277946,527.9033806149178 L207.14897244304458,532.5914391190261 M207.14897244304458,532.5914391190261 L206.2475555798234,537.2824344301657 M206.2475555798234,537.2824344301657 L203.79635625847658,541.7959031422469 M203.79635625847658,541.7959031422469 L199.88833728868653,545.9579412756767 M199.88833728868653,545.9579412756767 L194.6729029545952,549.6078829439925 M194.6729029545952,549.6078829439925 L188.35015025736516,552.6046597229362 M188.35015025736516,552.6046597229362 L181.16343699843662,554.8322265050937 M181.16343699843662,554.8322265050937 L173.3897514116378,556.2042816207385 M173.3897514116378,556.2042816207385 L165.32905349530617,556.6676249765071 M165.32905349530617,556.6676249765071 L157.29257979372792,556.2042702382095 M157.29257979372792,556.2042702382095 L149.59055380792438,554.8322195955318 M149.59055380792438,554.8322195955318 L142.52019298544275,552.6046585039625 M142.52019298544275,552.6046585039625 L136.35404000552006,549.6078829439925 M137.29829300487984,615.7301298722937 L132.28448839543358,612.0723535040214 M132.28448839543358,612.0723535040214 L128.60188285775553,607.9013641764923 M128.60188285775553,607.9013641764923 L126.39113021246612,603.378182035408 M126.39113021246612,603.378182035408 L125.73593146997081,598.6771180542495 M125.73593146997081,598.6771180542495 L126.66008156297903,593.978967894248 M126.66008156297903,593.978967894248 L129.12662118678378,589.464124543628 M129.12662118678378,589.464124543628 L133.03957394314364,585.3056096637782 M133.03957394314364,585.3056096637782 L138.24780675264083,581.6625088354677 M138.24780675264083,581.6625088354677 L144.55084014602446,578.6740307005955 M144.55084014602446,578.6740307005955 L151.70682044310098,576.4541507545138 M151.70682044310098,576.4541507545138 L159.44155348172734,575.0874822499738 M159.44155348172734,575.0874822499738 L167.4590495442929,574.6260571986564 M167.4590495442929,574.6260571986564 L175.4525814690971,575.0874676753979 M175.4525814690971,575.0874676753979 L183.11638494005925,576.4541446806728 M183.11638494005925,576.4541446806728 L190.15717963263998,578.6740189543785 M190.15717963263998,578.6740189543785 L196.3051435336647,581.6625088354677 M136.35404000552006,549.6078829439925 L131.32923120403876,545.957945741301 M131.32923120403876,545.957945741301 L127.63864147185956,541.7959003020576 M127.63864147185956,541.7959003020576 L125.42322759891942,537.2824230762245 M125.42322759891942,537.2824230762245 L124.76686412314689,532.5914520868652 M124.76686412314689,532.5914520868652 L125.69338441313886,527.9033951946401 M125.69338441313886,527.9033951946401 L128.16573166658196,523.3982574573406 M128.16573166658196,523.3982574573406 L132.0877009966719,519.2486875222638 M132.0877009966719,519.2486875222638 L137.30780940912115,515.6134271897392 M137.30780940912115,515.6134271897392 L143.6251197988483,512.6313836365167 M143.6251197988483,512.6313836365167 L150.79723139914697,510.4162850905227 M150.79723139914697,510.4162850905227 L158.5493338294638,509.0525609787119 M158.5493338294638,509.0525609787119 L166.5847754364944,508.5921301605108 M166.5847754364944,508.5921301605108 L174.5961457136501,509.05254643553883 M174.5961457136501,509.05254643553883 L182.27700117611306,510.4162790297661 M182.27700117611306,510.4162790297661 L189.33341161487033,512.6313719155961 M189.33341161487033,512.6313719155961 L195.49495832440223,515.6134271897392" stroke="black"  stroke-width="4"  fill="red"/></svg>