<svg viewBox="0 0 800 800" xmlns="http://www.w3.org/2000/svg"><path d="M365.6324329107018,471.15612224638403 L365.578724912219,365.6661270460703 M323.1992033616319,365.66612704607036 L323.80683941015843,368.57664094323223 M323.80683941015843,368.57664094323223 L325.6110646216016,371.3186591140108 M325.6110646216016,371.3186591140108 L328.50735216310443,373.73265417976717 M328.50735216310443,373.73265417976717 L332.32753931873776,375.6780964382662 M332.32753931873776,375.6780964382662 L336.8495629792165,377.041674519071 M336.8495629792165,377.041674519071 L341.81035775781845,377.74392619999134 M341.81035775781845,377.74392619999134 L346.9212389911245,377.74392722607166 M346.9212389911245,377.74392722607166 L351.88472845317324,377.04167294057896 M351.88472845317324,377.04167294057896 L356.4119800866104,375.67809754308416 M356.4119800866104,375.67809754308416 L360.2396315492842,373.7326551265992 M360.2396315492842,373.7326551265992 L363.14517986142533,371.31865942955744 M363.14517986142533,371.31865942955744 L364.95991968614635,368.5766406277583 M364.95991968614635,368.5766406277583 L365.578724912219,365.6661270460703 M323.3459963730007,471.15612224638403 L323.1992033616319,365.66612704607036 M365.6324329107018,471.15612224638403 L365.0149935869235,474.0731155809787 M365.0149935869235,474.0731155809787 L363.2042470451728,476.8212375775908 M363.2042470451728,476.8212375775908 L360.30508879536626,479.2406052031526 M360.30508879536626,479.2406052031526 L356.4858534908687,481.19037607962053 M356.4858534908687,481.19037607962053 L351.9685547587112,482.5569849102825 M351.9685547587112,482.5569849102825 L347.01597540109316,483.2608013084806 M347.01597540109316,483.2608013084806 L341.9163257095464,483.2608002801178 M341.9163257095464,483.2608002801178 L336.96642920713794,482.5569864922859 M336.96642920713794,482.5569864922859 L332.45433549137203,481.1903749723447 M332.45433549137203,481.1903749723447 L328.64253173160967,479.24060425421374 M328.64253173160967,479.24060425421374 L325.7525936059917,476.8212372613419 M325.7525936059917,476.8212372613419 L323.9523155228436,474.07311589715493 M323.9523155228436,474.07311589715493 L323.3459963730007,471.15612224638403 M505.12401445555975,390.79740925354577 L505.37651527186154,285.4865362558048 M505.12401445555975,390.79740925354577 L365.6324329107018,471.15612224638403 M505.37651527186154,285.4865362558048 L365.578724912219,365.6661270460703 M505.2591379841798,261.35405817751 L510.3097297560323,261.7043278835536 M510.3097297560323,261.7043278835536 L515.0706453635851,262.73484027193416 M515.0706453635851,262.73484027193416 L519.2655029839442,264.3858809761769 M519.2655029839442,264.3858809761769 L522.6506811795246,266.56172703254504 M522.6506811795246,266.56172703254504 L525.0294048075808,269.13617553759957 M525.0294048075808,269.13617553759957 L526.2631529531226,271.95982037834005 M526.2631529531226,271.95982037834005 L526.2798795784158,274.86866638783823 M526.2798795784158,274.86866638783823 L525.078142890415,277.69366984898284 M525.078142890415,277.69366984898284 L522.7274017746771,280.2705376524019 M522.7274017746771,280.2705376524019 L519.364021326498,282.4493019422273 M519.364021326498,282.4493019422273 L515.1834039243988,284.1030962946235 M515.1834039243988,284.1030962946235 L510.42868524137964,285.13556053872395 M510.42868524137964,285.13556053872395 L505.37651527186154,285.4865362558048 M344.76440364713824,169.90749445354047 L505.2591379841798,261.35405817751 M435.198534017042,118.49237827280336 L344.76440364713824,169.90749445354047 M708.2849388370284,273.41414914092263 L435.198534017042,118.49237827280336 M457.00978480232425,418.16735414426165 L708.2849388370284,273.41414914092263 M457.07845727988,442.6205014979002 L451.99009620596655,442.2648613956458 M451.99009620596655,442.2648613956458 L447.19588491863544,441.21866786968303 M447.19588491863544,441.21866786968303 L442.9747845003744,439.54289448170243 M442.9747845003744,439.54289448170243 L439.57226726394344,437.33517042034157 M439.57226726394344,437.33517042034157 L437.18601610650956,434.7240523221983 M437.18601610650956,434.7240523221983 L435.954469804263,431.86150586090605 M435.954469804263,431.86150586090605 L435.94879582296744,428.9140043621224 M435.94879582296744,428.9140043621224 L437.16888650504285,426.0528507954568 M437.16888650504285,426.0528507954568 L439.54343418655463,423.4442018035372 M439.54343418655463,423.4442018035372 L442.9341881092177,421.2394532231903 M442.9341881092177,421.2394532231903 L447.1440375080433,419.5664828036907 M447.1440375080433,419.5664828036907 L451.92847909030473,418.52227952241134 M451.92847909030473,418.52227952241134 L457.00978480232425,418.16735414426165 M527.632328081894,483.17517172365166 L457.07845727988,442.6205014979002 M527.632328081894,483.17517172365166 L91.71506116297155,575.5543652789062 M91.71506116297155,575.5543652789062 L253.33639176711972,325.50868064302523 M323.1992033616319,365.66612704607036 L253.33639176711972,325.50868064302523 M253.63613025879874,430.90911228017677 L253.33639176711972,325.50868064302523 M323.3459963730007,471.15612224638403 L253.63613025879874,430.90911228017677 M505.12401445555975,390.79740925354577 L510.1651287230188,390.44564683778015 M510.1651287230188,390.44564683778015 L514.9094510102915,389.4108682323222 M514.9094510102915,389.4108682323222 L519.0809369462903,387.7533663403558 M519.0809369462903,387.7533663403558 L522.4369822597495,385.56971684079167 M522.4369822597495,385.56971684079167 L524.7826105986686,382.98707006915964 M524.7826105986686,382.98707006915964 L525.9817529021493,380.15572975098263 M525.9817529021493,380.15572975098263 L525.9650993722378,377.2403572716224 M525.9650993722378,377.2403572716224 L524.7340855666303,374.41037562638013 M524.7340855666303,374.41037562638013 L522.3605970119096,371.830148275982 M522.3605970119096,371.830148275982 L518.9828492321984,369.64941715808277 M518.9828492321984,369.64941715808277 L514.7971853431592,367.99466906509764 M514.7971853431592,367.99466906509764 L510.04669319035065,366.96184241997616 M510.04669319035065,366.96184241997616 L505.0071502124707,366.6107860565933 M344.86301342073773,274.9580694458426 L505.0071502124707,366.6107860565933 M435.10035293929326,223.42636592260462 L344.86301342073773,274.9580694458426 M435.10035293929326,223.42636592260462 L707.5886095122023,378.69794925336925 M456.86234409510473,523.7739933695975 L707.5886095122023,378.69794925336925 M456.86234409510473,523.7739933695975 L451.79222182372894,524.1297055639714 M451.79222182372894,524.1297055639714 L447.0183068832656,525.1762235518568 M447.0183068832656,525.1762235518568 L442.8177170055879,526.8529020583496 M442.8177170055879,526.8529020583496 L439.4344180460057,529.0625366046398 M439.4344180460057,529.0625366046398 L437.0650872790453,531.6769654888556 M437.0650872790453,531.6769654888556 L435.8476711660287,534.5444569657257 M435.8476711660287,534.5444569657257 L435.85332018577355,537.4984860653982 M435.85332018577355,537.4984860653982 L437.0821415043021,540.367370445868 M437.0821415043021,540.367370445868 L439.4631242622406,542.9842684575337 M439.4631242622406,542.9842684575337 L442.85813477645405,545.1968785041706 M442.85813477645405,545.1968785041706 L447.0699261667008,546.8763599982624 M447.0699261667008,546.8763599982624 L451.8535678231433,547.924868249599 M451.8535678231433,547.924868249599 L456.93071441405846,548.2812951670089 M527.328602379136,588.9255347340277 L456.93071441405846,548.2812951670089 M527.328602379136,588.9255347340277 L92.37606653467026,681.5076217271967 M92.37606653467026,681.5076217271967 L253.63613025879874,430.90911228017677 M505.0071502124707,366.6107860565933 L505.2591379841798,261.35405817751 M344.86301342073773,274.9580694458426 L344.76440364713824,169.90749445354047 M435.10035293929326,223.42636592260462 L435.198534017042,118.49237827280336 M707.5886095122023,378.69794925336925 L708.2849388370284,273.41414914092263 M456.86234409510473,523.7739933695975 L457.00978480232425,418.16735414426165 M456.93071441405846,548.2812951670089 L457.07845727988,442.6205014979002 M527.328602379136,588.9255347340277 L527.632328081894,483.17517172365166 M92.37606653467026,681.5076217271967 L91.71506116297155,575.5543652789062" stroke="black"  stroke-width="4"  fill="red"/></svg>