<svg viewBox="0 0 800 800" xmlns="http://www.w3.org/2000/svg"><path d="M363.2562682141125,420.9856297152355 L363.1988468585105,308.202083540334 M317.88921615282385,308.2020835403341 L318.538864000531,311.3138296153047 M318.538864000531,311.3138296153047 L320.4678328762839,314.245430212965 M320.4678328762839,314.245430212965 L323.56436898904605,316.8263282729917 M323.56436898904605,316.8263282729917 L327.64868289621796,318.9062779058966 M327.64868289621796,318.9062779058966 L332.48335810259323,320.36413342240803 M332.48335810259323,320.36413342240803 L337.78714094867485,321.1149386028526 M337.78714094867485,321.1149386028526 L343.2513871881068,321.1149396998759 M343.2513871881068,321.1149396998759 L348.55805102735167,320.36413173477945 M348.55805102735167,320.36413173477945 L353.39831566738303,318.9062790871014 M353.39831566738303,318.9062790871014 L357.4906099618529,316.82632928528744 M357.4906099618529,316.82632928528744 L360.5970471325393,314.24543055032854 M360.5970471325393,314.24543055032854 L362.5372575992115,311.31382927801894 M362.5372575992115,311.31382927801894 L363.1988468585105,308.202083540334 M318.04615839501867,420.98562971523563 L317.88921615282385,308.2020835403341 M363.2562682141125,420.9856297152355 L362.59613929523897,424.10430321426674 M362.59613929523897,424.10430321426674 L360.6601982060884,427.0424296546994 M360.6601982060884,427.0424296546994 L357.56059290499326,429.62907173192644 M357.56059290499326,429.62907173192644 L353.47729665969837,431.7136492623267 M353.47729665969837,431.7136492623267 L348.647673061966,433.1747450739561 M348.647673061966,433.1747450739561 L343.3526736489494,433.9272231558263 M343.3526736489494,433.9272231558263 L337.900435497168,433.9272220563628 M337.900435497168,433.9272220563628 L332.6083044312761,433.17474676533885 M332.6083044312761,433.17474676533885 L327.784245723422,431.71364807849403 M327.784245723422,431.71364807849403 L323.7088948379425,429.6290707173782 M323.7088948379425,429.6290707173782 L320.61914713803674,427.04242931658507 M320.61914713803674,427.04242931658507 L318.69439829400795,424.1043035523033 M318.69439829400795,424.1043035523033 L318.04615839501867,420.98562971523563 M512.392261616146,335.07093609738536 L512.6622202735571,222.47889658779803 M512.392261616146,335.07093609738536 L363.2562682141125,420.9856297152355 M512.6622202735571,222.47889658779803 L363.1988468585105,308.202083540334 M535.1664284986467,209.57183845830485 L534.6170810213483,212.4427927495964 M534.6170810213483,212.4427927495964 L532.9633147713593,215.17038811189906 M532.9633147713593,215.17038811189906 L530.2877529378949,217.61771571570915 M530.2877529378949,217.61771571570915 L526.7244048503911,219.6618606369512 M526.7244048503911,219.6618606369512 L522.4519408976956,221.20011004912195 M522.4519408976956,221.20011004912195 L517.6847649358698,222.15512855304843 M517.6847649358698,222.15512855304843 L512.6622202735571,222.47889658779803 M631.8512967628333,154.11922255436178 L535.1664284986467,209.57183845830485 M729.5996797452627,209.57182775129704 L631.8512967628333,154.11922255436178 M460.9514265733422,364.33323189638446 L729.5996797452627,209.57182775129704 M461.02484704822854,390.47706353125926 L455.5846780061829,390.0968345643503 M455.5846780061829,390.0968345643503 L450.45899619085793,388.97830748868546 M450.45899619085793,388.97830748868546 L445.94604998180927,387.18667156223484 M445.94604998180927,387.18667156223484 L442.30828358398895,384.8263060304788 M442.30828358398895,384.8263060304788 L439.757047638928,382.03465590260794 M439.757047638928,382.03465590260794 L438.44035254398364,378.9741937196122 M438.44035254398364,378.9741937196122 L438.4342862650894,375.82290272981345 M438.4342862650894,375.82290272981345 L439.73873370124784,372.7639297458185 M439.73873370124784,372.7639297458185 L442.27745699508966,369.9749194375367 M442.27745699508966,369.9749194375367 L445.90264676667147,367.61773511078206 M445.90264676667147,367.61773511078206 L450.4035640637121,365.829095949328 M450.4035640637121,365.829095949328 L455.5188006990863,364.71269672334915 M455.5188006990863,364.71269672334915 L460.9514265733422,364.33323189638446 M536.4567942230002,433.83567316365736 L461.02484704822854,390.47706353125926 M536.4567942230002,433.83567316365736 L70.40032025473732,532.601940259935 M70.40032025473732,532.601940259935 L243.19610784036198,265.26816168296995 M317.88921615282385,308.2020835403341 L243.19610784036198,265.26816168296995 M243.51657017380404,377.9559518931253 L243.19610784036198,265.26816168296995 M318.04615839501867,420.98562971523563 L243.51657017380404,377.9559518931253 M534.8473685070051,322.13493329433624 L534.2991870558866,325.0123283261358 M534.2991870558866,325.0123283261358 L532.6490058544916,327.74604149418695 M532.6490058544916,327.74604149418695 L529.9792696364957,330.1988571869616 M529.9792696364957,330.1988571869616 L526.4236963126107,332.24758527273036 M526.4236963126107,332.24758527273036 L522.1605664418058,333.7892831074803 M522.1605664418058,333.7892831074803 L517.4038151162536,334.7464423503755 M517.4038151162536,334.7464423503755 L512.392261616146,335.07093609738536 M631.3218519643358,266.5576343532752 L534.8473685070051,322.13493329433624 M728.8552063910803,322.13492256330545 L631.3218519643358,266.5576343532752 M460.7937918537731,477.24148683401864 L728.8552063910803,322.13492256330545 M460.7937918537731,477.24148683401864 L455.3731226403535,477.6217928774777 M455.3731226403535,477.6217928774777 L450.2691404560677,478.74066684827864 M450.2691404560677,478.74066684827864 L445.7781228810714,480.533270472901 M445.7781228810714,480.533270472901 L442.160903506789,482.89567858002033 M442.160903506789,482.89567858002033 L439.62775782362087,485.69086840085606 M439.62775782362087,485.69086840085606 L438.326169875534,488.7566174965272 M438.326169875534,488.7566174965272 L438.3322094670424,491.9148874038514 M438.3322094670424,491.9148874038514 L439.6459911735995,494.9821257081167 M439.6459911735995,494.9821257081167 L442.19159446338716,497.7799553712357 M442.19159446338716,497.7799553712357 L445.82133512615786,500.14554470402555 M445.82133512615786,500.14554470402555 L450.32432868340413,501.94114511408446 M450.32432868340413,501.94114511408446 L455.43871008629526,503.06214695463655 M455.43871008629526,503.06214695463655 L460.8668892788897,503.44321713689766 M536.1320690037368,546.8975889116438 L460.8668892788897,503.44321713689766 M536.1320690037368,546.8975889116438 L71.10702736681253,645.8807774456382 M71.10702736681253,645.8807774456382 L243.51657017380404,377.9559518931253 M534.8473685070051,322.13493329433624 L535.1664284986467,209.57183845830485 M631.3218519643358,266.5576343532752 L631.8512967628333,154.11922255436178 M728.8552063910803,322.13492256330545 L729.5996797452627,209.57182775129704 M460.7937918537731,477.24148683401864 L460.9514265733422,364.33323189638446 M460.8668892788897,503.44321713689766 L461.02484704822854,390.47706353125926 M536.1320690037368,546.8975889116438 L536.4567942230002,433.83567316365736 M71.10702736681253,645.8807774456382 L70.40032025473732,532.601940259935" stroke="black"  stroke-width="4"  fill="red"/></svg>